<svg xmlns="http://www.w3.org/2000/svg" viewBox="0 0 256 256">
  <defs>
    <linearGradient id="bodyGrad" x1="0%" y1="0%" x2="100%" y2="100%">
      <stop offset="0%" style="stop-color:#8B7355"/>
      <stop offset="100%" style="stop-color:#6B5344"/>
    </linearGradient>
    <linearGradient id="noseGrad" x1="0%" y1="0%" x2="100%" y2="100%">
      <stop offset="0%" style="stop-color:#D4C4B0"/>
      <stop offset="100%" style="stop-color:#B8A898"/>
    </linearGradient>
  </defs>
  
  <!-- Background circle -->
  <circle cx="128" cy="128" r="120" fill="#4A90D9"/>
  <circle cx="128" cy="128" r="110" fill="#5BA0E9"/>
  
  <!-- Left ear -->
  <ellipse cx="75" cy="55" rx="22" ry="38" fill="url(#bodyGrad)" transform="rotate(-20, 75, 55)"/>
  <ellipse cx="75" cy="55" rx="12" ry="25" fill="#FFB6C1" transform="rotate(-20, 75, 55)"/>
  
  <!-- Right ear -->
  <ellipse cx="181" cy="55" rx="22" ry="38" fill="url(#bodyGrad)" transform="rotate(20, 181, 55)"/>
  <ellipse cx="181" cy="55" rx="12" ry="25" fill="#FFB6C1" transform="rotate(20, 181, 55)"/>
  
  <!-- Head -->
  <ellipse cx="128" cy="130" rx="70" ry="65" fill="url(#bodyGrad)"/>
  
  <!-- Mane -->
  <path d="M90 70 Q100 50, 110 70 Q120 50, 130 70 Q140 50, 150 70 Q160 50, 166 70" 
        stroke="#4A3728" stroke-width="8" fill="none" stroke-linecap="round"/>
  
  <!-- Left eye -->
  <ellipse cx="100" cy="115" rx="12" ry="14" fill="white"/>
  <circle cx="103" cy="117" r="7" fill="#2C1810"/>
  <circle cx="105" cy="114" r="3" fill="white"/>
  
  <!-- Right eye -->
  <ellipse cx="156" cy="115" rx="12" ry="14" fill="white"/>
  <circle cx="159" cy="117" r="7" fill="#2C1810"/>
  <circle cx="161" cy="114" r="3" fill="white"/>
  
  <!-- Eyebrows (determined look) -->
  <path d="M88 98 L112 105" stroke="#4A3728" stroke-width="3" stroke-linecap="round"/>
  <path d="M168 98 L144 105" stroke="#4A3728" stroke-width="3" stroke-linecap="round"/>
  
  <!-- Nose/Muzzle -->
  <ellipse cx="128" cy="165" rx="35" ry="28" fill="url(#noseGrad)"/>
  
  <!-- Nostrils -->
  <ellipse cx="115" cy="168" rx="6" ry="8" fill="#5A4A3A"/>
  <ellipse cx="141" cy="168" rx="6" ry="8" fill="#5A4A3A"/>
  
  <!-- Mouth (smile) -->
  <path d="M110 185 Q128 195, 146 185" stroke="#5A4A3A" stroke-width="3" fill="none" stroke-linecap="round"/>
  
  <!-- Blush -->
  <ellipse cx="75" cy="145" rx="12" ry="8" fill="#FFB6C1" opacity="0.6"/>
  <ellipse cx="181" cy="145" rx="12" ry="8" fill="#FFB6C1" opacity="0.6"/>
  
  <!-- Download arrow on forehead -->
  <circle cx="128" cy="75" r="18" fill="#FFD700"/>
  <path d="M128 60 L128 82 M118 72 L128 82 L138 72" stroke="#B8860B" stroke-width="4" stroke-linecap="round" stroke-linejoin="round" fill="none"/>
  
  <!-- Text -->
  <text x="128" y="240" text-anchor="middle" font-family="Arial, sans-serif" font-size="18" font-weight="bold" fill="white">MagnetDonkey</text>
</svg>
